<?xml version="1.0"?>
<svg xmlns="http://www.w3.org/2000/svg" xmlns:xlink="http://www.w3.org/1999/xlink" xmlns:svgjs="http://svgjs.com/svgjs" version="1.1" width="512" height="512" x="0" y="0" viewBox="0 0 512 512" style="enable-background:new 0 0 512 512" xml:space="preserve"><g><g xmlns="http://www.w3.org/2000/svg"><g><path d="m373.179 439.85h111.118v64.65h-111.118z" fill="#c19d8e" data-original="#c19d8e" style=""/></g><g><path d="m373.179 439.85h68.691v64.65h-68.691z" fill="#b78b7a" data-original="#b78b7a" style=""/></g><g><path d="m27.703 439.85h111.118v64.65h-111.118z" fill="#c19d8e" transform="matrix(-1 0 0 -1 166.524 944.35)" data-original="#c19d8e" style=""/></g><g><path d="m70.13 439.85h68.691v64.65h-68.691z" fill="#b78b7a" data-original="#b78b7a" style=""/></g><g><path d="m114.577 439.85h282.846v32.325h-282.846z" fill="#5766cb" data-original="#5766cb" style=""/></g><g><path d="m94.374 472.175h323.252v32.325h-323.252z" fill="#707dd3" data-original="#707dd3" style=""/></g><g><path d="m373.179 157.004h111.118v282.846h-111.118z" fill="#95d6a4" data-original="#95d6a4" style=""/></g><g><path d="m494.343 157.004h-121.164v-64.65h93.909c7.837 0 14.967 4.532 18.293 11.628l18.109 38.633c3.14 6.699-1.749 14.389-9.147 14.389z" fill="#e7a52e" data-original="#e7a52e" style=""/></g><g><path d="m379.24 39.825h-246.48c-4.463 0-8.081-3.618-8.081-8.081v-16.163c0-4.463 3.618-8.081 8.081-8.081h246.48c4.463 0 8.081 3.618 8.081 8.081v16.163c0 4.463-3.618 8.081-8.081 8.081z" fill="#eab14d" data-original="#eab14d" style=""/></g><g><path d="m379.24 7.5h-28.285c4.463 0 8.081 3.618 8.081 8.081v16.163c0 4.463-3.618 8.081-8.081 8.081h28.285c4.463 0 8.081-3.618 8.081-8.081v-16.163c0-4.463-3.618-8.081-8.081-8.081z" fill="#e7a52e" data-original="#e7a52e" style=""/></g><g><path d="m373.179 157.004h24.244v282.846h-24.244z" fill="#78c2a4" data-original="#78c2a4" style=""/></g><g><path d="m396.413 166.096h32.325v78.793h-32.325z" fill="#bed8fb" transform="matrix(0 1 -1 0 618.067 -207.083)" data-original="#bed8fb" style=""/></g><g><path d="m373.179 189.329h24.244v32.325h-24.244z" fill="#9dc6fb" data-original="#9dc6fb" style=""/></g><g><path d="m373.179 92.354h24.244v64.65h-24.244z" fill="#e49824" data-original="#e49824" style=""/></g><g><path d="m396.413 230.746h32.325v78.793h-32.325z" fill="#bed8fb" transform="matrix(0 1 -1 0 682.718 -142.433)" data-original="#bed8fb" style=""/></g><g><path d="m373.179 253.98h24.244v32.325h-24.244z" fill="#9dc6fb" data-original="#9dc6fb" style=""/></g><g><path d="m396.413 295.396h32.325v78.793h-32.325z" fill="#bed8fb" transform="matrix(0 1 -1 0 747.368 -77.783)" data-original="#bed8fb" style=""/></g><g><path d="m373.179 318.63h24.244v32.325h-24.244z" fill="#9dc6fb" data-original="#9dc6fb" style=""/></g><g><path d="m138.821 39.825h234.358v400.024h-234.358z" fill="#b3e59f" data-original="#b3e59f" style=""/></g><g><path d="m348.935 39.825h24.244v400.024h-24.244z" fill="#95d6a4" data-original="#95d6a4" style=""/></g><g><circle cx="256" cy="140.841" fill="#f9f6f9" r="70.711" data-original="#f9f6f9" style=""/></g><g><path d="m195.39 318.63h121.22v121.22h-121.22z" fill="#c19d8e" data-original="#c19d8e" style=""/></g><g><path d="m27.703 157.004h111.118v282.846h-111.118z" fill="#95d6a4" transform="matrix(-1 0 0 -1 166.524 596.854)" data-original="#95d6a4" style=""/></g><g><path d="m17.657 157.004h121.164v-64.65h-93.908c-7.837 0-14.967 4.532-18.293 11.628l-18.11 38.633c-3.14 6.699 1.749 14.389 9.147 14.389z" fill="#e7a52e" data-original="#e7a52e" style=""/></g><g><path d="m114.577 157.004h24.244v282.846h-24.244z" fill="#78c2a4" data-original="#78c2a4" style=""/></g><g><path d="m83.262 166.096h32.325v78.793h-32.325z" fill="#bed8fb" transform="matrix(0 1 -1 0 304.917 106.067)" data-original="#bed8fb" style=""/></g><g><path d="m114.577 189.329h24.244v32.325h-24.244z" fill="#9dc6fb" data-original="#9dc6fb" style=""/></g><g><path d="m114.577 92.354h24.244v64.65h-24.244z" fill="#e49824" data-original="#e49824" style=""/></g><g><path d="m83.262 230.746h32.325v78.793h-32.325z" fill="#bed8fb" transform="matrix(0 1 -1 0 369.567 170.718)" data-original="#bed8fb" style=""/></g><g><path d="m114.577 253.98h24.244v32.325h-24.244z" fill="#9dc6fb" data-original="#9dc6fb" style=""/></g><g><path d="m83.262 295.396h32.325v78.793h-32.325z" fill="#bed8fb" transform="matrix(0 1 -1 0 434.218 235.368)" data-original="#bed8fb" style=""/></g><g><path d="m114.577 318.63h24.244v32.325h-24.244z" fill="#9dc6fb" data-original="#9dc6fb" style=""/></g><g><path d="m256 62.63c-43.126 0-78.211 35.085-78.211 78.211s35.085 78.211 78.211 78.211 78.211-35.085 78.211-78.211-35.085-78.211-78.211-78.211zm0 141.423c-34.854 0-63.211-28.356-63.211-63.211s28.357-63.212 63.211-63.212 63.211 28.356 63.211 63.211-28.357 63.212-63.211 63.212z" fill="#000000" data-original="#000000" style=""/><path d="m286.305 133.341h-22.805v-30.886c0-4.142-3.357-7.5-7.5-7.5s-7.5 3.358-7.5 7.5v38.386c0 4.142 3.357 7.5 7.5 7.5h30.305c4.143 0 7.5-3.358 7.5-7.5s-3.358-7.5-7.5-7.5z" fill="#000000" data-original="#000000" style=""/><path d="m510.281 139.426-18.113-38.635c-4.548-9.684-14.392-15.941-25.078-15.941h-20.85c-4.143 0-7.5 3.358-7.5 7.5s3.357 7.5 7.5 7.5h20.85c4.898 0 9.413 2.873 11.499 7.313l18.11 38.628c.527 1.127.126 2.051-.16 2.501-.287.451-.954 1.207-2.199 1.207h-113.66v-49.649h30.561c4.143 0 7.5-3.358 7.5-7.5s-3.357-7.5-7.5-7.5h-30.561v-37.598c7.919-.73 14.142-7.403 14.142-15.508v-16.162c-.001-8.592-6.99-15.582-15.582-15.582h-246.48c-8.592 0-15.581 6.99-15.581 15.582v16.163c0 8.105 6.223 14.779 14.142 15.508v37.601h-86.409c-10.697 0-20.544 6.259-25.084 15.945l-18.109 38.633c-2.569 5.482-2.164 11.804 1.084 16.913 3.247 5.109 8.801 8.159 14.854 8.159h2.543v188.076c0 4.142 3.357 7.5 7.5 7.5s7.5-3.358 7.5-7.5v-188.076h96.12v17.325h-71.292c-4.143 0-7.5 3.358-7.5 7.5v32.325c0 4.142 3.357 7.5 7.5 7.5h71.292v17.325h-71.292c-4.143 0-7.5 3.358-7.5 7.5v32.325c0 4.142 3.357 7.5 7.5 7.5h71.292v17.325h-71.292c-4.143 0-7.5 3.358-7.5 7.5v32.325c0 4.142 3.357 7.5 7.5 7.5h71.292v73.895h-96.12v-44.77c0-4.142-3.357-7.5-7.5-7.5s-7.5 3.358-7.5 7.5l.003 116.92c0 4.142 3.357 7.5 7.5 7.5h456.594c4.143 0 7.5-3.358 7.5-7.5v-340h2.543c6.055 0 11.609-3.05 14.857-8.159s3.654-11.431 1.084-16.914zm-129.601 186.704h63.792v17.325h-63.792zm0-64.651h63.792v17.325h-63.792zm0-64.65h63.792v17.325h-63.792zm-248.501-181.247c0-.321.261-.582.581-.582h246.48c.32 0 .581.261.581.582v16.163c0 .32-.261.581-.581.581h-246.48c-.32 0-.581-.261-.581-.581zm176.93 310.548v106.22h-45.609v-106.22zm-60.609 106.22h-45.609v-106.22h45.609zm141.423 15v17.325h-267.846v-17.325zm-372.266-297.846c-1.244 0-1.91-.756-2.196-1.206-.286-.451-.688-1.375-.16-2.5l18.109-38.633c2.082-4.441 6.597-7.312 11.502-7.312h86.408v49.65h-113.663zm49.871 64.65v-17.325h63.792v17.325zm0 64.651v-17.325h63.792v17.325zm0 64.65v-17.325h63.792v17.325zm-32.325 103.895h71.874v17.325h-12.703c-4.143 0-7.5 3.358-7.5 7.5v24.825h-51.671zm366.261 49.65h-290.928-8.662v-17.325h308.252v17.325zm23.662 0v-24.825c0-4.142-3.357-7.5-7.5-7.5h-12.703v-17.325h71.874v49.65zm51.671-64.65h-96.117v-24.71c0-4.142-3.357-7.5-7.5-7.5s-7.5 3.358-7.5 7.5v24.71h-41.57v-113.72c0-4.142-3.357-7.5-7.5-7.5h-121.219c-4.143 0-7.5 3.358-7.5 7.5v113.72h-41.57v-385.025h219.359v325.315c0 4.142 3.357 7.5 7.5 7.5s7.5-3.358 7.5-7.5v-14.185h71.292c4.143 0 7.5-3.358 7.5-7.5v-32.325c0-4.142-3.357-7.5-7.5-7.5h-71.292v-17.325h71.292c4.143 0 7.5-3.358 7.5-7.5v-32.325c0-4.142-3.357-7.5-7.5-7.5h-71.292v-17.325h71.292c4.143 0 7.5-3.358 7.5-7.5v-32.325c0-4.142-3.357-7.5-7.5-7.5h-71.292v-17.33h96.117z" fill="#000000" data-original="#000000" style=""/></g></g></g></svg>
